<svg id="Layer_1" data-name="Layer 1" xmlns="http://www.w3.org/2000/svg" viewBox="0 0 411.44 182.83"><defs><style>.cls-1{fill:#3498db;}</style></defs><path class="cls-1" d="M44.28,171.86v-11H156v11Zm0,83.27v-11h111v11Zm0,83.53v-11H156v11Z" transform="translate(-44.28 -158.59)"/><path class="cls-1" d="M198.26,338.91V161.09h11.27V338.91ZM207.78,244v-4.51H248.6q19.79,0,30.68-9.08t10.89-25.48q0-15.66-10.7-24.23t-30.12-8.58H208.28l-3-11H248.1q25.54,0,39.57,11.46t14,32.37q0,18.66-10.95,28.86T259.62,244Zm0,94.92v-11h50.84q21,0,32.56-9.58t11.52-27q0-19.4-11.34-30.11t-32-10.71H208.28l-3-5.51h56.6q25,0,38.7,12.15t13.65,34.18q0,22.68-14.59,35.13t-41.26,12.46Zm-1-91.79v-4.76h56.6v4.76Z" transform="translate(-44.28 -158.59)"/><path class="cls-1" d="M394.49,341.41a156.28,156.28,0,0,1-26.3-2.12,125.07,125.07,0,0,1-23.55-6.39l1.76-12.15a167,167,0,0,0,25.42,7,131.64,131.64,0,0,0,24.67,2.38q23.53,0,35.19-8T443.32,298q0-20.65-20.28-31.43l-48-25.42q-12.51-6.63-19.09-15.65t-6.58-21.79q0-22.54,13-33.81t39-11.27a82.92,82.92,0,0,1,29.93,5.19,72.28,72.28,0,0,1,24.42,15.72l-8.14,8.14a95,95,0,0,0-23.1-13.34,63.19,63.19,0,0,0-23-4.44q-20.42,0-30.49,8.07t-10.08,24.48q0,9.9,5.19,16.72t15.09,12l44.58,23q14.65,7.65,21.85,18.54a43.92,43.92,0,0,1,7.2,24.79q0,22-15,33T394.49,341.41Z" transform="translate(-44.28 -158.59)"/></svg>